<?xml version="1.0" encoding="utf-8"?>
<!-- Generator: Adobe Illustrator 19.0.0, SVG Export Plug-In . SVG Version: 6.00 Build 0)  -->
<svg version="1.1" id="CUT" xmlns="http://www.w3.org/2000/svg" xmlns:xlink="http://www.w3.org/1999/xlink" x="0px" y="0px"
	 viewBox="0 0 5000 5000" style="enable-background:new 0 0 5000 5000;" xml:space="preserve">
<style type="text/css">
	.st0{fill:none;stroke:#000000;stroke-width:0.2;stroke-miterlimit:10;}
</style>
<path id="back" class="st0" d="M4348.9,1005.8l482.8,172.4c-19.1,35.8-38.2,71.6-55.6,108.3c-11.6,24.6-22.4,49.5-31.9,74.9
	c-9.5,25.2-17.7,50.7-24.7,76.8c-6.7,25.1-12.1,50.7-13.5,76.6c-0.6,10.9-0.5,21.9-0.2,32.8c0.2,11.5,0.5,23,1.2,34.5
	c0.7,11.3,1.9,22.7,3.5,33.9c1.6,11.3,3.8,22.5,6.5,33.5c2.7,10.9,6,21.7,9.9,32.2c1.9,5,3.9,10,6.1,14.9c2.2,4.9,4.6,9.8,7.2,14.5
	c2.5,4.7,5.2,9.2,8.1,13.7c2.8,4.3,5.8,8.5,8.9,12.6c3.1,3.9,6.3,7.7,9.8,11.3c3.3,3.5,6.9,6.8,10.6,9.9c4.9,4.1,10.2,7.9,15.6,11.3
	c5.6,3.6,11.5,6.8,17.4,9.8c12.6,6.4,25.6,11.9,38.6,17.4l54.8,13.8l-13.5,1426.1l-529.1-0.9l-252.3-0.4l-238.8,0.2l-13.5,0
	l-529.1,0.5l-12.5-1426.1l54.8-13.8c13-5.5,26-11,38.6-17.4c5.9-3,11.8-6.2,17.4-9.8c5.4-3.4,10.7-7.2,15.6-11.3
	c3.7-3.1,7.3-6.4,10.6-9.9c3.5-3.6,6.7-7.4,9.8-11.3c3.2-4,6.2-8.2,8.9-12.6c2.9-4.4,5.5-9,8.1-13.7c2.6-4.8,5-9.6,7.2-14.5
	c2.2-4.9,4.2-9.9,6.1-14.9c3.9-10.5,7.2-21.3,9.9-32.2c2.7-11.1,4.9-22.2,6.5-33.5c1.7-11.3,2.8-22.6,3.5-33.9
	c0.7-11.5,1-23,1.3-34.5c0.2-11,0.4-21.9-0.2-32.8c-1.3-25.6-6.6-51-13.2-75.9c-6.9-26.1-15.1-51.6-24.6-76.8
	c-9.6-25.4-20.4-50.3-32-74.9c-17.4-36.7-36.5-72.5-55.6-108.3l482.8-172.8c9.3,18.5,18.5,36.9,32.8,51.4c3.3,3.3,6.8,6.4,10.6,9
	c4,2.7,8.4,4.9,13,6.8c12.6,5.1,26.2,7.2,39.8,9c32.2,4.1,64.2,6,96.4,6.6c15.5,0.3,31,0.3,46.5,0.3c15.5,0,31,0,46.5-0.3
	c32.2-0.6,64.2-2.4,96.4-6.5c13.6-1.7,27.2-3.8,39.8-8.9c4.5-1.8,8.9-4,13-6.8c3.8-2.6,7.3-5.7,10.6-9
	C4330.4,1042.7,4339.6,1024.3,4348.9,1005.8L4348.9,1005.8"/>
<path id="collar-back" class="st0" d="M2352.8,577.5l-40.9,255.4h-447.3h-266.5h-266.5H884.2l-40.9-255.4
	c102.7-10.5,205.5-21.1,308.5-25.1c85.9-3.3,171.9-2.2,257.9-2.7c62.8-0.4,125.5-1.8,188.3-3.1c62.7,1.4,125.5,2.7,188.3,3.1
	c86,0.6,172.1-0.6,257.9,2.7C2147.3,556.5,2250,567,2352.8,577.5L2352.8,577.5"/>
<polyline id="placket" class="st0" points="3038.3,76.4 3038.3,272.6 3038.3,643.3 2471.4,643.3 2471.4,272.6 2471.4,76.4 
	3038.3,76.4 "/>
<path id="collar" class="st0" d="M2352.8,149.7l-40.9,255.4h-447.3h-266.5h-266.5H884.2l-40.9-255.4
	c102.7-10.5,205.5-21.1,308.5-25.1c85.9-3.3,171.9-2.2,257.9-2.7c62.8-0.4,125.5-1.8,188.3-3.1c62.7,1.4,125.5,2.7,188.3,3.1
	c86,0.6,172.1-0.6,257.9,2.7C2147.3,128.7,2250,139.2,2352.8,149.7L2352.8,149.7"/>
<path id="sleeve-right" class="st0" d="M445.8,2089.9c-26.3-5.9-52.6-11.9-79-17.4c-16.1-3.4-32.3-6.6-48.6-9.5
	c-16.1-2.9-32.3-5.4-48.6-7.4c-16.2-2-32.4-3.5-48.7-4.4c-7.9-0.4-15.9-0.7-23.8-0.7c-8.1,0-16.2,0.2-24.3,0.4
	c-31.9,0.8-63.8,1.6-95.6,2.5l0-598.3l0-557.8c29.6-2.5,59.1-5,88.5-8.6c15-1.8,30-3.9,44.9-6.5c14.9-2.5,29.8-5.5,44.6-8.7
	c30-6.5,59.8-14,89.6-21.5l101.9-30.4c3.3,16.1,6.6,32.2,10.8,48.2c1.5,5.8,3.1,11.6,5,17.4c1.8,5.6,3.8,11.2,5.9,16.8
	c4.4,11.5,9.5,22.7,15.2,33.5c5.7,10.8,11.9,21.3,18.7,31.5c6.8,10.2,14.2,19.9,22.1,29.3c5.8,6.9,11.9,13.5,18.1,19.9
	c6.2,6.4,12.6,12.6,19.1,18.7c6.5,6.1,13.2,12.1,20,17.9c14,12.1,28.4,23.6,42.9,35c29.5,23,59.5,45.2,88.5,68.8
	c10.9,8.9,21.7,18,32.3,27.4c10.6,9.4,20.9,19.1,30.9,29c10.1,10.1,19.9,20.4,29.3,31.2c9.4,10.8,18.5,22,27,33.6
	c7,9.6,13.7,19.4,20,29.5c6.3,10.1,12.1,20.6,17.4,31.3c5.2,10.6,9.8,21.5,13.7,32.7c2,5.8,3.8,11.7,5.4,17.6
	c1.6,5.9,3,11.8,4.2,17.8c1.5,8.2,2.5,16.4,3.6,24.7c0.9,7.2,1.9,14.4,2.5,21.6c1.1,14.6,0.2,29.4-0.6,44.1
	c-0.4,7.5-0.9,15-1.6,22.5c-0.7,7.5-1.8,15-3.2,22.5c-1.2,6.1-2.6,12.2-4.2,18.2c-1.6,6.1-3.4,12.1-5.5,18.1
	c-3.9,11.5-8.6,22.8-13.8,33.7c-5.3,11.1-11.3,21.9-17.7,32.3c-6.3,10.4-13.2,20.4-20.4,30.2c-5.9,8-12.1,15.9-18.4,23.6
	c-6.3,7.6-12.8,15-19.5,22.1c-6.7,7.2-13.6,14.1-20.6,20.9c-7,6.8-14.2,13.3-21.6,19.8c-7.3,6.4-14.8,12.6-22.5,18.6
	c-7.7,6.1-15.6,12.1-23.6,17.8c-15.4,11.1-31.3,21.6-47.6,31.5c-7.7,4.7-15.4,9.2-23.1,13.8c-2,1.2-3.9,2.4-5.9,3.5
	c-15.9,9.5-31.7,19.2-46.9,29.6c-9.1,6.2-18,12.8-26.7,19.7c-8.6,6.9-16.9,14.1-24.8,21.7c-7.8,7.5-15.3,15.5-22.2,23.9
	c-3.2,3.9-6.4,8-9.3,12.2c-3,4.2-5.7,8.5-8.4,12.9c-3.6,6.1-6.9,12.4-10,18.8c-3.1,6.5-5.9,13.2-8.6,19.9
	c-5.6,14.2-10.4,28.7-15.3,43.2L445.8,2089.9"/>
<polyline id="front" class="st0" points="1420.2,1112.7 1424.8,1132.9 1437.7,1182.5 1447.9,1212.2 1460.2,1239.9 1463.8,1246.6 
	1478,1268.8 1484.3,1276.9 1500.5,1293.9 1508,1300.5 1530.3,1317.2 1536.1,1320.9 1558.6,1333.4 1564.4,1336.1 1584,1343 
	1586.3,1343.5 1594.7,1336.7 1600.1,1346.2 1627.6,1348 1638.3,1348.1 1672,1346.8 1676.5,1346.3 1681.9,1336.8 1690.4,1343.6 
	1711,1336.7 1712.2,1336.1 1735.1,1324.4 1740.6,1321 1763.4,1305.1 1768.7,1300.7 1786.7,1283.6 1792.4,1277.1 1805.9,1258.7 
	1813,1246.8 1825.2,1221.6 1828.9,1212.5 1841,1176.4 1852.1,1133.1 1870.5,1047.2 1878.5,1006.7 2362.1,1177.3 2316.2,1267.5 
	2305.6,1287.1 2263,1362.5 2240.9,1405.8 2227.4,1438.2 2217.5,1469.6 2214.7,1480.9 2209.8,1509 2208.2,1525 2207.7,1558.9 
	2207.8,1561.8 2210.2,1599.6 2214,1626.2 2220.2,1652.1 2228.8,1676.7 2238.9,1697.4 2240.2,1699.7 2253.4,1719 2269.2,1736.6 
	2287,1752.3 2306.6,1765.7 2323.6,1774.7 2341.8,1782.7 2380.5,1796.8 2432.4,1810.2 2420.4,3236.3 1879.6,3236 1637.3,3235.9 
	1395,3235.7 854.2,3235.5 843.8,1809.3 895.7,1796 934.4,1781.9 952.6,1774 969.6,1764.9 989.2,1751.6 1007.1,1735.9 1022.8,1718.3 
	1036.1,1699 1046.5,1678.4 1047.5,1676.1 1056.2,1651.5 1062.3,1625.6 1066.2,1598.9 1068.7,1561.2 1068.5,1528.1 1068.3,1524.4 
	1065.1,1496.9 1061.8,1480.2 1053,1448.5 1049.2,1437.6 1034.3,1402.1 1013.6,1361.9 971.2,1286.3 935.7,1218.5 914.8,1176.5 
	1398.6,1006.4 1420.2,1112.7 "/>
<path id="sleeve-left" class="st0" d="M2818.7,2091.1c26.3-5.9,52.6-11.9,79-17.4c16.1-3.4,32.3-6.6,48.6-9.5
	c16.1-2.9,32.3-5.4,48.6-7.4c16.2-2,32.4-3.5,48.7-4.4c7.9-0.4,15.9-0.7,23.8-0.7c8.1,0,16.2,0.2,24.3,0.4
	c31.9,0.8,63.8,1.6,95.6,2.5l0-598.3l0-557.8c-29.6-2.5-59.1-5-88.5-8.6c-15-1.8-30-3.9-44.9-6.5c-14.9-2.5-29.8-5.5-44.6-8.7
	c-30-6.5-59.8-14-89.6-21.5l-101.9-30.4c-3.3,16.1-6.6,32.2-10.8,48.2c-1.5,5.8-3.1,11.6-5,17.4c-1.8,5.6-3.8,11.2-5.9,16.8
	c-4.4,11.5-9.5,22.7-15.2,33.5c-5.7,10.8-11.9,21.3-18.7,31.5c-6.8,10.2-14.2,19.9-22.1,29.3c-5.8,6.9-11.9,13.5-18.1,19.9
	c-6.2,6.4-12.6,12.6-19.1,18.7c-6.5,6.1-13.2,12.1-20,17.9c-14,12.1-28.4,23.6-42.9,35c-29.5,23-59.5,45.2-88.5,68.8
	c-10.9,8.9-21.7,18-32.3,27.4c-10.6,9.4-20.9,19.1-30.9,29c-10.1,10.1-19.9,20.4-29.3,31.2c-9.4,10.8-18.5,22-27,33.6
	c-7,9.6-13.7,19.4-20,29.5c-6.3,10.1-12.1,20.6-17.4,31.3c-5.2,10.6-9.8,21.5-13.7,32.7c-2,5.8-3.8,11.7-5.4,17.6
	c-1.6,5.9-3,11.8-4.2,17.8c-1.5,8.2-2.5,16.4-3.6,24.7c-0.9,7.2-1.9,14.4-2.5,21.6c-1.1,14.6-0.2,29.4,0.6,44.1
	c0.4,7.5,0.9,15,1.6,22.5c0.7,7.5,1.8,15,3.2,22.5c1.2,6.1,2.6,12.2,4.2,18.2c1.6,6.1,3.4,12.1,5.5,18.1
	c3.9,11.5,8.6,22.8,13.8,33.7c5.3,11.1,11.3,21.9,17.7,32.3c6.3,10.4,13.2,20.4,20.4,30.2c5.9,8,12.1,15.9,18.4,23.6
	c6.3,7.6,12.8,15,19.5,22.1c6.7,7.2,13.6,14.1,20.6,20.9c7,6.8,14.2,13.3,21.6,19.8c7.3,6.4,14.8,12.6,22.5,18.6
	c7.7,6.1,15.6,12,23.6,17.8c15.4,11.1,31.3,21.6,47.6,31.5c7.7,4.7,15.4,9.2,23.1,13.8c2,1.2,3.9,2.4,5.9,3.5
	c15.9,9.5,31.6,19.2,46.9,29.6c9.1,6.2,18,12.8,26.7,19.7c8.6,6.9,16.9,14.1,24.8,21.7c7.8,7.5,15.3,15.5,22.2,23.9
	c3.2,3.9,6.4,8,9.3,12.2c3,4.2,5.7,8.5,8.4,12.9c3.6,6.1,6.9,12.4,10,18.8c3.1,6.5,5.9,13.2,8.6,19.9c5.6,14.2,10.4,28.7,15.3,43.2
	L2818.7,2091.1"/>
<polyline id="button" class="st0" points="747.8,76.4 747.8,203.9 747.8,444.9 180.9,444.9 180.9,203.9 180.9,76.4 747.8,76.4 "/>
</svg>
